<mxfile host="Electron" modified="2024-02-12T10:01:27.451Z" agent="Mozilla/5.0 (Windows NT 10.0; Win64; x64) AppleWebKit/537.36 (KHTML, like Gecko) draw.io/23.0.2 Chrome/120.0.6099.109 Electron/28.1.0 Safari/537.36" etag="SxC15mNZWcWHXOt8kMkm" version="23.0.2" type="device">
  <diagram name="Page-1" id="ZiJN9SzxeHhZmzOtk8go">
    <mxGraphModel dx="1562" dy="926" grid="1" gridSize="10" guides="1" tooltips="1" connect="1" arrows="1" fold="1" page="1" pageScale="1" pageWidth="1920" pageHeight="1200" math="0" shadow="0">
      <root>
        <mxCell id="0" />
        <mxCell id="1" parent="0" />
        <mxCell id="xMPzkMAOVeLPNaBRGStG-1" value="" style="rounded=0;whiteSpace=wrap;html=1;fillColor=#dae8fc;strokeColor=#6c8ebf;" vertex="1" parent="1">
          <mxGeometry x="320" y="320" width="280" height="40" as="geometry" />
        </mxCell>
        <mxCell id="xMPzkMAOVeLPNaBRGStG-2" value="" style="rounded=0;whiteSpace=wrap;html=1;fillColor=#ffe6cc;strokeColor=#d79b00;" vertex="1" parent="1">
          <mxGeometry x="600" y="320" width="280" height="40" as="geometry" />
        </mxCell>
        <mxCell id="xMPzkMAOVeLPNaBRGStG-3" value="" style="rounded=0;whiteSpace=wrap;html=1;fillColor=#ffe6cc;strokeColor=#d79b00;" vertex="1" parent="1">
          <mxGeometry x="630" y="360" width="280" height="40" as="geometry" />
        </mxCell>
        <mxCell id="xMPzkMAOVeLPNaBRGStG-4" value="" style="rounded=0;whiteSpace=wrap;html=1;fillColor=#dae8fc;strokeColor=#6c8ebf;" vertex="1" parent="1">
          <mxGeometry x="350" y="360" width="280" height="40" as="geometry" />
        </mxCell>
        <mxCell id="xMPzkMAOVeLPNaBRGStG-5" value="" style="shape=curlyBracket;whiteSpace=wrap;html=1;rounded=1;labelPosition=left;verticalLabelPosition=middle;align=right;verticalAlign=middle;rotation=-90;" vertex="1" parent="1">
          <mxGeometry x="730" y="280" width="20" height="285" as="geometry" />
        </mxCell>
        <mxCell id="xMPzkMAOVeLPNaBRGStG-6" value="&lt;font face=&quot;LM Sans&quot; style=&quot;font-size: 16px;&quot;&gt;FFT Block&lt;/font&gt;" style="text;html=1;align=center;verticalAlign=middle;resizable=0;points=[];autosize=1;strokeColor=none;fillColor=none;" vertex="1" parent="1">
          <mxGeometry x="760" y="420" width="90" height="30" as="geometry" />
        </mxCell>
        <mxCell id="xMPzkMAOVeLPNaBRGStG-7" value="" style="rounded=0;whiteSpace=wrap;html=1;fillColor=#ffe6cc;strokeColor=#d79b00;" vertex="1" parent="1">
          <mxGeometry x="630" y="460" width="250" height="40" as="geometry" />
        </mxCell>
        <mxCell id="xMPzkMAOVeLPNaBRGStG-8" value="" style="rounded=0;whiteSpace=wrap;html=1;fillColor=#dae8fc;strokeColor=#6c8ebf;" vertex="1" parent="1">
          <mxGeometry x="600" y="460" width="30" height="40" as="geometry" />
        </mxCell>
        <mxCell id="xMPzkMAOVeLPNaBRGStG-9" value="&lt;font style=&quot;font-size: 16px;&quot; face=&quot;LM Sans&quot;&gt;Symbol 1&lt;/font&gt;" style="text;html=1;align=center;verticalAlign=middle;resizable=0;points=[];autosize=1;strokeColor=none;fillColor=none;" vertex="1" parent="1">
          <mxGeometry x="440" y="280" width="90" height="30" as="geometry" />
        </mxCell>
        <mxCell id="xMPzkMAOVeLPNaBRGStG-10" value="&lt;font style=&quot;font-size: 16px;&quot; face=&quot;LM Sans&quot;&gt;Symbol 2&lt;/font&gt;" style="text;html=1;align=center;verticalAlign=middle;resizable=0;points=[];autosize=1;strokeColor=none;fillColor=none;" vertex="1" parent="1">
          <mxGeometry x="680" y="280" width="90" height="30" as="geometry" />
        </mxCell>
        <mxCell id="xMPzkMAOVeLPNaBRGStG-11" value="&lt;font style=&quot;font-size: 16px;&quot; face=&quot;LM Sans&quot;&gt;Delayed symbols&lt;/font&gt;" style="text;html=1;align=center;verticalAlign=middle;resizable=0;points=[];autosize=1;strokeColor=none;fillColor=none;" vertex="1" parent="1">
          <mxGeometry x="320" y="407.5" width="130" height="30" as="geometry" />
        </mxCell>
      </root>
    </mxGraphModel>
  </diagram>
</mxfile>
